/* XPM */
static char *result[] = {
/* columns rows colors chars-per-pixel */
"32 32 109 2 ",
"   c #414748",
".  c #404647",
"X  c #424849",
"o  c #3C4243",
"O  c #282B2C",
"+  c #3D4243",
"@  c #414849",
"#  c #3A3F40",
"$  c #313636",
"%  c #202223",
"&  c #0F1010",
"*  c #3C4142",
"=  c #42494A",
"-  c #3E4445",
";  c #292C2D",
":  c #101111",
">  c #242728",
",  c #3F4546",
"<  c #2F3233",
"1  c #060606",
"2  c #040404",
"3  c #1D1F20",
"4  c #282C2C",
"5  c #161818",
"6  c gray1",
"7  c #0C0D0D",
"8  c #3B4041",
"9  c #262929",
"0  c #2B2F30",
"q  c #292D2E",
"w  c black",
"e  c #010101",
"r  c #090909",
"t  c #2F3434",
"y  c #3A4041",
"u  c #2F3334",
"i  c #26292A",
"p  c #3A4040",
"a  c #3F4445",
"s  c #131414",
"d  c #020202",
"f  c #070707",
"g  c #0B0B0C",
"h  c gray2",
"j  c #212324",
"k  c #363B3B",
"l  c #353A3A",
"z  c #070808",
"x  c #363A3B",
"c  c #151616",
"v  c #1A1C1C",
"b  c #0B0C0C",
"n  c #1E2121",
"m  c #3E4444",
"M  c #121414",
"N  c #2B2F2F",
"B  c #242727",
"V  c #0D0E0E",
"C  c #1F2222",
"Z  c #3B4142",
"A  c #383C3D",
"S  c #171819",
"D  c #393E3F",
"F  c #1C1E1E",
"G  c #232626",
"H  c #313536",
"J  c gray3",
"K  c #1A1B1C",
"L  c #1F2122",
"P  c #2C3031",
"I  c #080909",
"U  c #212424",
"Y  c #3E4344",
"T  c #35393A",
"R  c #373C3C",
"E  c #363B3C",
"W  c #202323",
"Q  c #1C1E1F",
"!  c #252828",
"~  c #09090A",
"^  c #292D2D",
"/  c #43494A",
"(  c #34393A",
")  c #343939",
"_  c #2E3232",
"`  c #1B1D1E",
"'  c #171919",
"]  c #333838",
"[  c gray4",
"{  c #090A0A",
"}  c #101212",
"|  c #222525",
" . c #272B2B",
".. c #353A3B",
"X. c #414647",
"o. c #181A1A",
"O. c #131515",
"+. c #1B1D1D",
"@. c #060707",
"#. c #2F3333",
"$. c #272A2B",
"%. c #2B2E2F",
"&. c #191B1B",
"*. c #2D3031",
"=. c #101112",
"-. c #313637",
";. c #373C3D",
":. c #2E3132",
">. c white",
/* pixels */
"                                                                ",
"                                                                ",
"                            . .         X                       ",
"                          o O +     @ # $ o                     ",
"                        . % & * = - ; : > ,                     ",
"                  , X X < 1 2 3 4 5 6 7 8 X X                   ",
"                . 9 0 q 7 w w e e w w r t y u i p               ",
"          .     a s d d w w w w w w w w f g h j .               ",
"        X k l   $ z w w w w w w w w w w w w 6 u X               ",
"        X x c v b w w w w w w w w w w w w w e n m X X           ",
"          . v w w w w w w w w w w w w w w w w 2 M % N 8         ",
"        @ X B w w w w w w w w w w w w w w w w w w d V C 8       ",
"      Z A 8 5 w w w w w w w w w w w w w w w w w w S D o ,       ",
"      o F V 6 w w w w w w w w w w w w w w w w w w G X           ",
"      X H J w w w w w w w w w w w w w w w w w w w K .           ",
"          L w w w w w w w w w w w w w w w w w w w 1 O ,         ",
"        X P d w w w w w w w w w w w w w w w w w w w I U Y       ",
"      . , B e w w w w w w w w w w w w w w w w w w z N T -       ",
"      D L J w w w w w w w w w w w w w w w w w w w r R =         ",
"        E W f w w w w w w w w w w w w w w w w w w 2 Q -         ",
"        X   ! d w w w w w w w w w w w w w w w w ~ ^ < +         ",
"        X / ( 1 w w w w w w w w w w w w w w w w K   X           ",
"      . ) _ ` d w w w w w w w w w w w w w w w w ' .             ",
"        ] v b [ { 6 w w w w w w w w w w w e } | | -             ",
"        @ , D D D  .f w w w w w w w w w w r ..X , .             ",
"            @ X X X.o.w w w w w w w 6 d w ' .                   ",
"                  Y O.2 ' +.@.w J L #.| h $.X                   ",
"                X.%.&.*., . v =.-.  / D c ;.X                   ",
"                X.* , X     T # X   X E :.                      ",
"                            @         , .                       ",
"                                                                ",
"                                                                "
};
