/* XPM */
static char *result[] = {
/* columns rows colors chars-per-pixel */
"32 32 130 2 ",
"   c #414748",
".  c #434647",
"X  c #424748",
"o  c #384A4B",
"O  c #354B4C",
"+  c #3E4849",
"@  c #424647",
"#  c #3F4849",
"$  c #5E3C3E",
"%  c #7F3032",
"&  c #902A2C",
"*  c #803031",
"=  c #4D4344",
"-  c #3A494A",
";  c #5D3D3E",
":  c #CB1417",
">  c #D71111",
",  c #663A3A",
"<  c #3B494A",
"1  c #3C494A",
"2  c #404748",
"3  c #265152",
"4  c #7D3133",
"5  c #FD0204",
"6  c #93292B",
"7  c #444647",
"8  c #364B4C",
"9  c #563F41",
"0  c #5B3E3F",
"q  c #643A3B",
"w  c #CE1417",
"e  c #B91B1E",
"r  c #4C4345",
"t  c #8C2C2D",
"y  c #D91011",
"u  c #DB0F10",
"i  c #C2181A",
"p  c #CD1415",
"a  c #CE1415",
"s  c #773335",
"d  c #3D4849",
"f  c #862E30",
"g  c #F10708",
"h  c #DA0F10",
"j  c #DE0E0F",
"k  c #E90A0B",
"l  c #733536",
"z  c #2E4E4F",
"x  c #464546",
"c  c #7E3133",
"v  c #D61112",
"b  c #DD0E0F",
"n  c #DC0F10",
"m  c #D81011",
"M  c #E20D0D",
"N  c #892D2E",
"B  c #334C4D",
"V  c #394A4B",
"C  c #404848",
"Z  c #3D494A",
"A  c #723536",
"S  c #A22425",
"D  c #96282A",
"F  c #B11E20",
"G  c #9D2527",
"H  c #563F40",
"J  c #832F30",
"K  c #E50B0D",
"L  c #E60B0C",
"P  c #E30C0D",
"I  c #EC090A",
"U  c #6A383A",
"Y  c #544041",
"T  c #A62224",
"R  c #D11314",
"E  c #E30C0E",
"W  c #D61011",
"Q  c #D51112",
"!  c #C61718",
"~  c #4E4344",
"^  c #504243",
"/  c #CD1416",
"(  c #E80A0B",
")  c #D80F10",
"_  c #E40C0D",
"`  c #E60C0D",
"'  c #E70C0E",
"]  c #E40D0E",
"[  c #F10709",
"{  c #2E4D4E",
"}  c #374B4C",
"|  c #753435",
" . c #D71011",
".. c #DE0D0E",
"X. c #E70D0E",
"o. c #D51617",
"O. c #B22425",
"+. c #9E2B2C",
"@. c #913031",
"#. c #942F30",
"$. c #A6282A",
"%. c #A3282A",
"&. c #A92627",
"*. c #7E3334",
"=. c #BD1A1B",
"-. c #D21213",
";. c #CF1A1B",
":. c #853435",
">. c #504445",
",. c #374B4B",
"<. c #364B4B",
"1. c #5A4041",
"2. c #8A3132",
"3. c #B62224",
"4. c #593F40",
"5. c #4E4243",
"6. c #B81F21",
"7. c #A7282A",
"8. c #444748",
"9. c #364A4B",
"0. c #334B4D",
"q. c #544243",
"w. c #39494A",
"e. c #992A2B",
"r. c #9C2C2E",
"t. c #344B4C",
"y. c #3F4748",
"u. c #823434",
"i. c #404849",
"p. c white",
/* pixels */
"                                                                ",
"                                                                ",
"                                                                ",
"                                                                ",
"                                                                ",
"                                                                ",
"                                . . X                           ",
"                                o O + @                         ",
"                          # $ % & * = - X                       ",
"                        X @ . . ; : > , < .                     ",
"                      . 1 < 2 X 3 4 5 6 O 7                     ",
"                    2 8 9 0   7 q w e r # X                     ",
"                      t y u i p a s d d X                       ",
"                . 8 f g h u j k l z x 7 .                       ",
"                . o c v b n m M N B o V V C                     ",
"                X . d Z A j h n b S D F G 7 2                   ",
"              X Z o = H J j h u u K L P I U V .                 ",
"            @ < Y T R j E u h y m W Q h ! ~ 2 X                 ",
"          X + ^ / ( b u y ) b _ ` ' ] [ 6 { o C X               ",
"          . } | I  .n m ..X.o.O.+.@.#.$.%.&.*.. d X             ",
"          X + = =.u -.] ;.:.>.V ,.<.<.,.Z 1.2.3.4.1 X           ",
"            X + X 5.6.7.8.9.d . . 7 7 . X < 0.q.~ +             ",
"              . w.e.r.t.y.7 X             X 7 d + X             ",
"              2 7 u.i.2 X                     X                 ",
"                  o   X                                         ",
"                  .                                             ",
"                                                                ",
"                                                                ",
"                                                                ",
"                                                                ",
"                                                                ",
"                                                                "
};
