/* XPM */
static char *result[] = {
/* columns rows colors chars-per-pixel */
"32 32 148 2 ",
"   c #414748",
".  c #3F4648",
"X  c #534E46",
"o  c #87613F",
"O  c #5C5144",
"+  c #3E4648",
"@  c #3D4648",
"#  c #504D46",
"$  c #C27838",
"%  c #FD8E30",
"&  c #DB8134",
"*  c #544E46",
"=  c #464947",
"-  c #454847",
";  c #404748",
":  c #635444",
">  c #92653E",
",  c #C77937",
"<  c #FF8E30",
"1  c #E68533",
"2  c #E18334",
"3  c #E38433",
"4  c #B0713A",
"5  c #A36C3B",
"6  c #7F5E40",
"7  c #404648",
"8  c #7C5D40",
"9  c #E88633",
"0  c #FF8F30",
"q  c #F68B31",
"w  c #7B5D41",
"e  c #5E5244",
"r  c #CD7C36",
"t  c #775B41",
"y  c #94663D",
"u  c #A36C3C",
"i  c #685543",
"p  c #FE8E30",
"a  c #C87A37",
"s  c #474947",
"d  c #615344",
"f  c #836040",
"g  c #695643",
"h  c #4A4A47",
"j  c #C57937",
"k  c #8D633E",
"l  c #645443",
"z  c #595045",
"x  c #F98C31",
"c  c #F08932",
"v  c #434848",
"b  c #BB7538",
"n  c #E28433",
"m  c #625344",
"M  c #5B5145",
"N  c #4E4C46",
"B  c #DA8035",
"V  c #DE8234",
"C  c #6C5743",
"Z  c #5A5145",
"A  c #524E46",
"S  c #E28334",
"D  c #EF8832",
"F  c #DF8234",
"G  c #F88C31",
"H  c #E58433",
"J  c #564F45",
"K  c #7A5C41",
"L  c #D27E36",
"P  c #805F40",
"I  c #93663E",
"U  c #FC8D30",
"Y  c #F38A31",
"T  c #685643",
"R  c #484947",
"E  c #444848",
"W  c #AE703A",
"Q  c #675543",
"!  c #3C4549",
"~  c #CB7B36",
"^  c #99683D",
"/  c #5C5145",
"(  c #6F5842",
")  c #6C5742",
"_  c #514D46",
"`  c #90653E",
"'  c #D07D36",
"]  c #6A5643",
"[  c #4C4B47",
"{  c #A56D3B",
"}  c #92663E",
"|  c #A76D3B",
" . c #5D5144",
".. c #FB8D30",
"X. c #DA8134",
"o. c #9B693D",
"O. c #B67339",
"+. c #745A41",
"@. c #AA6E3B",
"#. c #CF7C36",
"$. c #A46C3B",
"%. c #EC8732",
"&. c #C67937",
"*. c #91653E",
"=. c #D67F35",
"-. c #C77A37",
";. c #8A633F",
":. c #FA8C31",
">. c #F28A31",
",. c #6E5842",
"<. c #C97A37",
"1. c #4D4C46",
"2. c #C47837",
"3. c #FF902F",
"4. c #D47E35",
"5. c #4F4C46",
"6. c #8F643E",
"7. c #795C41",
"8. c #A16B3C",
"9. c #CB7B37",
"0. c #494A47",
"q. c #C07738",
"w. c #F58B31",
"e. c #BD7538",
"r. c #C37837",
"t. c #4B4B47",
"y. c #AB6F3B",
"u. c #CC7B36",
"i. c #D77F35",
"p. c #DC8134",
"a. c #BD7638",
"s. c #F48A31",
"d. c #F18932",
"f. c #CE7C36",
"g. c #454848",
"h. c #9E6A3C",
"j. c #755B41",
"k. c #665543",
"l. c #484A47",
"z. c #6B5743",
"x. c #BC7538",
"c. c #705942",
"v. c #BF7638",
"b. c #ED8832",
"n. c #88623F",
"m. c #735A42",
"M. c #6D5842",
"N. c white",
/* pixels */
"                              . X o O + .                       ",
"                          . @ # $ % & o * = -                   ",
"                        ; : > , < 1 2 % 3 4 5 6 7               ",
"                      7 8 9 0 0 q w e r 9 t y u ;               ",
"                    . i 1 0 p 0 a s . X d 7 f g .               ",
"                  ; h j 0 p p p k +   ; . . l z .               ",
"                  + 6 x p p < c : .       . d O .               ",
"                  v b 0 p p 0 n X ;       . m M .               ",
"                ; N B 0 0 p 0 V # ;       . C Z .               ",
"                ; A S D F G 0 H J 7       ; K * ;               ",
"                ; N L P N I U Y T .       = P R                 ",
"                  E W Q ! # ~ p ^ +     . / ( ;                 ",
"                  . ( ) . ; _ ` ' ] + + N w [ ;                 ",
"                    v s     ; d { 2 } w |  .7                   ",
"                          . z & & U p ..X.# ;                   ",
"                          . o.< 0 p p < O.s                     ",
"                        . z S < p p p G +.+                     ",
"                      ; = @.V #.p 0 0 0 ^ .                     ",
"                    ; = $.%.&.*.o > o.=.-.=                     ",
"                    . ;.:.0 >.,.- # # t <.1.;                   ",
"                    E 2.3.0 4.5.> 6.7.8.O.E                     ",
"                    ; K H 3.9.0.q.B ' w.y +                     ",
"                      ; ( e.r.t.2.3.0 Y ] .                     ",
"                    ; h b y.w 1.u.0 0 i.1.;                     ",
"                    . T Y < p.a.s.< 0 y.;                       ",
"                    + I < p 0 0 < < d.) .                       ",
"                  . 0.f.0 p p p p 0 e.g.                        ",
"                . 5.h.x < p p p < q j.+                         ",
"              ; k.&.s.q :.0 < p 0 , l.;                         ",
"                z ( C z.w x.Y 0 w.7.+                           ",
"                7 + + + + g.c.v.b.n..                           ",
"                            + l.m.M.;                           "
};
