/* XPM */
static char *result[] = {
/* columns rows colors chars-per-pixel */
"32 32 163 2 ",
"   c #414748",
".  c #424849",
"X  c #3A3F40",
"o  c #2E3233",
"O  c #444A4B",
"+  c #3D4344",
"@  c #1D1F20",
"#  c #3B4041",
"$  c #35393A",
"%  c #323636",
"&  c #343839",
"*  c #43494A",
"=  c #383D3D",
"-  c #333738",
";  c #2C2F30",
":  c #373C3D",
">  c #3F4445",
",  c #393E3E",
"<  c #3E4445",
"1  c #404647",
"2  c #3B4142",
"3  c #1F2121",
"4  c #3D4243",
"5  c #3F4546",
"6  c #404546",
"7  c #2B2F2F",
"8  c #313536",
"9  c #3C4242",
"0  c #242727",
"q  c #353A3B",
"w  c #484F50",
"e  c #212424",
"r  c #202323",
"t  c #414747",
"y  c #3C4142",
"u  c #393E3F",
"i  c #303334",
"p  c #383D3E",
"a  c #444B4C",
"s  c #363B3B",
"d  c #454B4C",
"f  c #363B3C",
"g  c #313636",
"h  c #323737",
"j  c #2F3334",
"k  c #272A2B",
"l  c #2D3131",
"z  c #303435",
"x  c #222525",
"c  c #3E4344",
"v  c #2D3031",
"b  c #42494A",
"n  c #434949",
"m  c #242728",
"M  c #444A4C",
"N  c #474D4F",
"B  c #1A1C1C",
"V  c #151717",
"C  c #414647",
"Z  c #333737",
"A  c #292C2C",
"S  c #2A2D2E",
"D  c #3A3F3F",
"F  c #26292A",
"G  c #252929",
"H  c #2A2E2E",
"J  c #1D1F1F",
"K  c #161818",
"L  c #272B2B",
"P  c #232626",
"I  c #2B2F30",
"U  c #3B4141",
"Y  c #313535",
"T  c #3C4243",
"R  c #43494B",
"E  c #434A4B",
"W  c #1B1D1D",
"Q  c #484E4F",
"!  c gray3",
"~  c #292C2D",
"^  c #252828",
"/  c #3F4545",
"(  c #454C4D",
")  c #2E3232",
"_  c #464D4E",
"`  c #040505",
"'  c #393D3E",
"]  c #0D0E0E",
"[  c #495051",
"{  c #171819",
"}  c #323637",
"|  c #252829",
" . c #474D4E",
".. c #070808",
"X. c #020202",
"o. c #282B2C",
"O. c #494F50",
"+. c #121313",
"@. c #2D3132",
"#. c #404646",
"$. c black",
"%. c #191B1C",
"&. c #1E2121",
"*. c #171919",
"=. c #060606",
"-. c #464C4D",
";. c #363A3B",
":. c #232526",
">. c #1F2122",
",. c #141516",
"<. c #34393A",
"1. c #010000",
"2. c #121414",
"3. c #373C3C",
"4. c #2C3030",
"5. c #2C3031",
"6. c #4C5354",
"7. c #2F3333",
"8. c #474E4F",
"9. c #292D2D",
"0. c #161718",
"q. c #222526",
"w. c #0E0F0F",
"e. c #414849",
"r. c #0B0B0C",
"t. c #090909",
"y. c #0A0B0B",
"u. c #040404",
"i. c #010101",
"p. c gray4",
"a. c #080909",
"s. c #414749",
"d. c #454B4D",
"f. c #262929",
"g. c #42484A",
"h. c #353A3A",
"j. c #232627",
"k. c #0C0D0D",
"l. c #191B1B",
"z. c #1A1B1C",
"x. c #2E3132",
"c. c #3A3E3F",
"v. c #151616",
"b. c #0F1010",
"n. c #131415",
"m. c #181A1A",
"M. c #373B3C",
"N. c #343939",
"B. c #101111",
"V. c #0F1011",
"C. c #1D2020",
"Z. c #0C0C0D",
"A. c #202324",
"S. c #1E2020",
"D. c #1B1E1E",
"F. c #282B2B",
"G. c #4A5152",
"H. c #212425",
"J. c #1A1C1D",
"K. c #181A1B",
"L. c #272A2A",
"P. c #2B2E2F",
"I. c white",
/* pixels */
"                . X o X O + @ # O $   % & * = - ; . : . > , < . ",
"            1 . . 2 3 4 5 6 7 5 * 8 9 0 q w e r t y u . i p     ",
".           a y s d f g t 6 h j w k l z j $ x a O c v q u *     ",
"+ .     . < f X f b n 8 i . . m 8 q M N B V . a   v j . b C     ",
"Z + 6 5 . 1 A S 1 * # D F G 1 H J a * y K > d f L P I U .       ",
"+ Y T 4 . R T m 1 5 E l # f P B W Q + ! @ ~ ^ l > d / 1         ",
"8 e k 4     c x 6 : ( X ) _ d r ` ' ] F f f 5 a . 1             ",
". d F P [ a X { < } ) z |  .. 6 ..X.o.O.* E . 1                 ",
"      r o.: X +.* 9 # f H @.#.5 $.%.Q 5 1                       ",
"    b   l &.*.=.g O ( * O } 0 T $.L -.1                         ",
". 4 T ( -.( 1 ;.:.>.8 (   6 Y ,.$.H ( 1                         ",
"D D ^ o < 6 <.v o.*.1.2.U ( C B $.8 a 1                         ",
"  > 3.4.F x L ) $ X u S +.5.6.7.$.q O 1                         ",
"  . E ( . C d ( O * * 8.+ ! 9.| =.+ .                           ",
"      1     1 1       5 d p $.0.o c .                           ",
"                        5  .q.$.w.5 e.                          ",
"                          . / X.r.*                             ",
"                            . t.y.*                             ",
"                          . 5 u.y..                             ",
"                          b y i.p.                              ",
"                        1 E = $.a.1 s.                          ",
"                        1 M - $.=.c .                           ",
"                        1 d.5.$.u.# *                           ",
"                        1 -.f.$.i.f E 1                         ",
"                        1 -.&.$.$.j O #.                        ",
"                      1 5 ( K $.$.@ [ * * g..     .             ",
"                . . . d 8.C a.$.i.i.f.h.= D #   1 +   .         ",
"        C 1 1   y X X ; j.k.$.$.$.$.w.4.l.e k z.3 x.c.# 5       ",
"    C e.E * -.  u x.v.b.W n.m.] b.$.a.m.5.} 3.p M.8 j # * e.1 . ",
"    * 5 q ~ m h ; K N.1 ; & S :.  B.V.C.w.Z.k.+.n.A.S.D.9.v X u ",
"    q 8 X N.^ q @.  < k F.G.r 7.-.* H.J. .T 8 G K.l.; 5 y p 4 < ",
". + p O # } w - k 1 ' } d + v.& E   * p   . d  .8.1 L.P.4 O c   "
};
